<svg width="16" height="19" viewBox="0 0 16 19" fill="none" xmlns="http://www.w3.org/2000/svg">
<path d="M2.9375 18.8809C1.03906 18.8809 0.0458984 17.8965 0.0458984 16.0156V6.91895C0.0458984 5.03809 1.03906 4.05371 2.9375 4.05371H4.17676C4.2207 2.08496 5.9082 0.450195 8 0.450195C10.1006 0.450195 11.7793 2.08496 11.8232 4.05371H13.0625C14.9609 4.05371 15.9541 5.03809 15.9541 6.91895V16.0156C15.9541 17.8965 14.9697 18.8809 13.2734 18.8809H2.9375ZM8 2.00586C6.7959 2.00586 5.9082 2.91113 5.87305 4.05371H10.127C10.0918 2.91113 9.2041 2.00586 8 2.00586Z" fill="#DC128B"/>
</svg>
