<svg width="23" height="20" viewBox="0 0 23 20" fill="none" xmlns="http://www.w3.org/2000/svg">
<path d="M0.833984 13.8945C0.453125 13.9043 0.111328 13.5625 0.111328 13.1621C0.111328 8.39648 2.76758 4.65625 6.64453 3.23047L6.35156 2.42969C6.08789 1.69727 6.37109 1.05273 7.03516 0.808594C7.66016 0.583984 8.31445 0.896484 8.57812 1.61914L11.1367 8.64062C11.2637 8.99219 11.498 9.09961 11.7227 9.02148C11.918 8.94336 12.0254 8.70898 11.8984 8.35742L11.127 6.22852C11 5.88672 11.1465 5.62305 11.5371 5.47656C12.4062 5.16406 13.2461 5.48633 13.6465 6.58984L14.0176 7.58594C14.1445 7.94727 14.3691 8.05469 14.6035 7.9668C14.8086 7.89844 14.9062 7.66406 14.7793 7.3125L14.3887 6.22852C14.2617 5.87695 14.3887 5.62305 14.7988 5.47656C15.6777 5.1543 16.5566 5.58398 16.918 6.58008L17.1133 7.09766C17.2402 7.44922 17.4746 7.55664 17.6992 7.47852C17.9043 7.41016 18.0117 7.16602 17.8848 6.82422L17.5918 6.0332C17.5137 5.80859 17.5918 5.62305 17.8262 5.54492C18.7734 5.19336 19.9648 5.96484 20.5703 7.625L21.2344 9.45117C22.8359 13.8457 21.4297 17.2832 17.3086 18.7773C14.2227 19.9004 11.127 19.2168 8.43164 15.877L5.19922 11.8535C5.08203 11.707 4.97461 11.5312 4.88672 11.3164C4.67188 10.7207 4.95508 10.0859 5.63867 9.8418C6.12695 9.65625 6.55664 9.80273 6.94727 10.2227L9.4375 12.8984C9.61328 13.084 9.75977 13.1328 9.90625 13.084C10.0527 13.0254 10.1504 12.8496 10.0625 12.6152L7.14258 4.58789C3.80273 5.80859 1.625 8.95312 1.52734 13.1816C1.51758 13.582 1.22461 13.8848 0.833984 13.8945Z" fill="#DC128B"/>
</svg>
