<svg width="22" height="20" viewBox="0 0 22 20" fill="none" xmlns="http://www.w3.org/2000/svg">
<path d="M0.580078 1.77539C0.746094 1.04297 1.41992 0.945312 1.86914 1.41406C3.28516 2.9082 5.04297 3.02539 6.5957 3.02539C8.04102 3.02539 9.89648 2.625 11.4883 2.625C16.293 2.625 19.6133 5.03711 19.6133 9.83203C19.6133 10.2812 19.584 10.7207 19.5352 11.0039C19.4668 11.4141 18.998 11.5801 18.6172 11.2383C14.418 7.38086 9.97461 10.291 6.58594 6.80469C6.3125 6.51172 5.98047 6.75586 6.09766 7.06836C7.74805 11.4434 14.3594 9.02148 18.7051 13.0547C19.7305 14.0215 21.7129 16.3945 21.7129 17.7617C21.7129 18.6699 21.0977 19.3242 20.3359 19.3242C19.9551 19.3242 19.6133 19.1289 19.4668 18.6504C18.9492 17.0391 18.5098 15.8379 17.709 14.7051C16.7324 15.7891 14.7695 17.2637 11.4492 17.2637C4.70117 17.2637 0.287109 12.3711 0.287109 4.97852C0.287109 4.08984 0.365234 2.77148 0.580078 1.77539Z" fill="#DC128B"/>
</svg>
