<svg width="22" height="22" viewBox="0 0 22 22" fill="none" xmlns="http://www.w3.org/2000/svg">
<path d="M9.94469 21.3398C9.34898 21.3398 8.90953 20.9883 8.78258 20.4121L8.2943 18.3516C7.96227 18.2344 7.64977 18.1074 7.3568 17.9707L5.55992 19.084C5.07164 19.3867 4.49547 19.3379 4.09508 18.9375L2.84508 17.6777C2.43492 17.2773 2.37633 16.6816 2.69859 16.1934L3.80211 14.4062C3.66539 14.1133 3.53844 13.8008 3.44078 13.498L1.3607 13.0098C0.784531 12.8828 0.442734 12.4434 0.442734 11.8574V10.0996C0.442734 9.52344 0.784531 9.07422 1.3607 8.94727L3.42125 8.44922C3.53844 8.10742 3.66539 7.80469 3.78258 7.54102L2.67906 5.71484C2.36656 5.2168 2.40562 4.66016 2.82555 4.25L4.09508 2.99023C4.515 2.60938 5.02281 2.55078 5.52086 2.82422L7.34703 3.94727C7.64 3.80078 7.96227 3.67383 8.2943 3.56641L8.78258 1.48633C8.90953 0.910156 9.34898 0.558594 9.94469 0.558594H11.7318C12.3177 0.558594 12.7572 0.910156 12.8841 1.48633L13.3822 3.57617C13.7142 3.69336 14.0267 3.82031 14.3099 3.95703L16.1459 2.82422C16.6439 2.55078 17.1615 2.61914 17.5716 2.99023L18.8412 4.25C19.2611 4.66016 19.3002 5.2168 18.9877 5.71484L17.8841 7.54102C18.0013 7.80469 18.138 8.10742 18.2455 8.44922L20.306 8.94727C20.8822 9.07422 21.224 9.52344 21.224 10.0996V11.8574C21.224 12.4434 20.8822 12.8828 20.306 13.0098L18.2259 13.498C18.1283 13.8008 18.0013 14.1133 17.8646 14.4062L18.9681 16.1934C19.2904 16.6816 19.2318 17.2773 18.8314 17.6777L17.5716 18.9375C17.1712 19.3379 16.5951 19.3867 16.1166 19.084L14.3099 17.9707C14.017 18.1074 13.7045 18.2344 13.3724 18.3516L12.8841 20.4121C12.7572 20.9883 12.3177 21.3398 11.7318 21.3398H9.94469ZM10.8334 14.3672C12.7181 14.3672 14.2513 12.8242 14.2513 10.9395C14.2513 9.07422 12.7181 7.54102 10.8334 7.54102C8.95836 7.54102 7.42516 9.07422 7.42516 10.9395C7.42516 12.8242 8.95836 14.3672 10.8334 14.3672Z" fill="#DC128B"/>
</svg>
